<svg width="53" height="32" viewBox="0 0 53 32" fill="none" xmlns="http://www.w3.org/2000/svg">
<path id="Union" fill-rule="evenodd" clip-rule="evenodd" d="M0 3C0 1.34315 1.34315 0 3 0H50C51.6569 0 53 1.34315 53 3C53 4.65685 51.6569 6 50 6H3C1.34315 6 0 4.65685 0 3ZM0 16C0 14.3431 1.34315 13 3 13H50C51.6569 13 53 14.3431 53 16C53 17.6569 51.6569 19 50 19H3C1.34315 19 0 17.6569 0 16ZM3 26C1.34315 26 0 27.3431 0 29C0 30.6569 1.34315 32 3 32H50C51.6569 32 53 30.6569 53 29C53 27.3431 51.6569 26 50 26H3Z" fill="#D1C12B"/>
</svg>
